<svg width="881" height="876" viewBox="0 0 881 876" version="1.1" xmlns="http://www.w3.org/2000/svg" xmlns:xlink="http://www.w3.org/1999/xlink" xmlns:figma="http://www.figma.com/figma/ns">
  <title>Vector 4 (Stroke)</title>
  <desc>Created using Figma</desc>
  <g id="Canvas" transform="translate(-32652 -9644)" figma:type="canvas">
    <g id="Vector 4 (Stroke)" figma:type="vector">
      <use xlink:href="#path0_fill" transform="matrix(-0.808746 -0.588158 -0.588158 0.808746 33740.1 10212.2)" fill="#003BDE"/>
      <use xlink:href="#path1_stroke" transform="matrix(-0.808746 -0.588158 -0.588158 0.808746 33740.1 10212.2)" fill="#111111"/>
    </g>
  </g>
  <defs>
    <path id="path0_fill" fill-rule="evenodd" d="M 548.022 126.39C 548.022 126.39 548.022 126.39 548.022 126.39C 394.788 163.54 255.505 262.208 117.572 395.358C 95.6775 416.493 60.8394 416.775 39.1935 395.385L 39.1935 395.385C 17.5475 373.996 17.2882 339.044 39.1555 317.881C 183.498 178.184 340.499 63.3082 522.058 19.2916L 522.058 19.2916C 710.869 -26.4833 917.525 6.27824 1152.53 149.075C 1178.53 164.878 1185.5 199.164 1168.76 224.573L 1168.76 224.573C 1152.01 249.983 1117.87 256.868 1091.82 241.141C 877.731 111.9 701.689 89.136 548.022 126.39Z"/>
    <path id="path1_stroke" d="M 117.572 395.358L 110.627 388.163L 117.572 395.358ZM 548.022 126.39L 545.666 116.672L 548.022 126.39ZM 1152.53 149.075L 1147.33 157.621L 1152.53 149.075ZM 548.022 126.39L 550.379 136.109L 548.022 126.39ZM 39.1555 317.881L 32.201 310.695L 39.1555 317.881ZM 1091.82 241.141L 1086.65 249.702L 1091.82 241.141ZM 124.517 402.552C 261.96 269.876 399.692 172.641 550.379 136.109L 545.666 116.672C 389.885 154.439 249.05 254.54 110.627 388.163L 124.517 402.552ZM 519.701 9.57313C 335.591 54.2083 177.037 170.521 32.201 310.695L 46.1099 325.066C 189.959 185.847 345.407 72.4081 524.414 29.0101L 519.701 9.57313ZM 1157.72 140.53C 920.942 -3.34699 711.59 -36.9477 519.701 9.57313L 524.414 29.0101C 710.148 -16.019 914.108 15.9035 1147.33 157.621L 1157.72 140.53ZM 550.379 136.109C 700.999 99.5931 874.355 121.543 1086.65 249.702L 1096.99 232.58C 881.107 102.258 702.379 78.6789 545.666 116.672L 550.379 136.109ZM 110.627 388.163C 92.5241 405.638 63.8921 405.733 46.2223 388.272L 32.1647 402.498C 57.7868 427.817 98.8308 427.348 124.517 402.552L 110.627 388.163ZM 550.379 136.109C 550.379 136.109 550.379 136.109 550.379 136.109L 545.666 116.672C 545.666 116.672 545.666 116.672 545.666 116.672L 550.379 136.109ZM 46.2223 388.272C 28.4601 370.72 28.3811 342.225 46.1099 325.066L 32.201 310.695C 6.19535 335.863 6.63493 377.271 32.1647 402.498L 46.2223 388.272ZM 1147.33 157.621C 1168.29 170.355 1174.17 198.187 1160.41 219.07L 1177.11 230.076C 1196.84 200.141 1188.78 159.401 1157.72 140.53L 1147.33 157.621ZM 1160.41 219.07C 1146.76 239.776 1118.68 245.671 1096.99 232.58L 1086.65 249.702C 1117.07 268.065 1157.26 260.189 1177.11 230.076L 1160.41 219.07Z"/>
  </defs>
</svg>
