<svg width="403" height="786" viewBox="0 0 403 786" version="1.1" xmlns="http://www.w3.org/2000/svg" xmlns:xlink="http://www.w3.org/1999/xlink" xmlns:figma="http://www.figma.com/figma/ns">
  <title>Group</title>
  <desc>Created using Figma</desc>
  <g id="Canvas" transform="translate(-32722 -5475)" figma:type="canvas">
    <g id="Group" figma:type="frame">
      <g id="Vector 4 (Stroke)" figma:type="vector">
        <use xlink:href="#path0_fill" transform="translate(32732 5485)" fill="#003BDE"/>
      </g>
      <g id="Vector 4 (Stroke) (Stroke)" figma:type="vector">
        <use xlink:href="#path1_fill" transform="translate(32722 5475)" fill="#111111"/>
      </g>
    </g>
  </g>
  <defs>
    <path id="path0_fill" fill-rule="evenodd" d="M 40.8126 4.11966e-10C 62.904 -9.91817e-05 80.8127 17.9084 80.8128 39.9998C 80.8128 46.058 80.6447 52.1221 80.4767 58.1837C 79.8304 81.4947 79.1853 104.768 88.1077 127.522C 96.7739 149.623 117.273 176.27 183.613 184.289C 278.972 195.816 342.882 263.643 348.231 341.12C 353.829 422.204 295.181 494.623 185.924 514.363C 116.435 526.918 98.5683 580.374 115.792 621.202C 132.509 660.83 194.92 710.283 331.92 671.512C 353.176 665.496 375.285 677.851 381.301 699.108C 387.316 720.364 374.961 742.473 353.705 748.488C 193.889 793.717 80.2072 742.67 42.0826 652.298C 4.46465 563.126 53.0063 457.082 171.701 435.637C 250.627 421.377 270.572 377.796 268.421 346.63C 266.02 311.857 235.838 271.184 174.012 263.711C 83.1667 252.73 34.6665 210.377 13.6291 156.728C -2.04521 116.755 -0.342018 72.5111 0.529281 49.8774C 0.684185 45.8535 0.812797 42.5126 0.812786 40.0002C 0.812683 17.9088 18.7212 9.91825e-05 40.8126 4.11966e-10Z"/>
    <path id="path1_fill" fill-rule="evenodd" d="M 0.772499 50.0002C 0.772371 22.386 23.158 0.000123978 50.7723 5.14961e-10C 78.3865 -0.000123977 100.772 22.3855 100.772 49.9998C 100.772 56.1965 100.601 62.3992 100.433 68.4609C 100.419 68.9619 100.405 69.462 100.391 69.9611C 99.7566 92.6862 99.1759 113.495 107.377 133.872C 111.377 144.165 117.054 153.993 130.03 163.067C 142.786 172.239 162.746 180.49 194.772 184.361C 294.294 196.391 362.447 267.59 368.167 350.431C 374.2 437.818 310.639 513.791 197.662 534.203C 165.311 540.048 146.355 555.072 137.066 571.992C 127.68 589.09 127.421 609.431 134.966 627.316C 149.046 660.692 205.131 709.819 339.157 671.89C 365.727 664.37 393.363 679.814 400.882 706.385C 408.402 732.955 392.958 760.591 366.387 768.11C 203.8 814.123 83.6544 762.96 42.8286 666.184C 2.65489 570.955 55.0542 458.35 179.882 435.797C 217.768 428.952 240.205 415.315 252.917 400.867C 265.599 386.454 269.311 370.452 268.404 357.319C 266.368 327.835 240.354 290.599 182.772 283.639C 88.8791 272.289 36.868 227.985 14.279 170.378C -1.94536 128.423 -0.374904 82.1264 0.496395 59.4928L 0.505482 59.2568C 0.656084 55.3455 0.774325 52.2747 0.772499 50.0002ZM 50.7724 20C 34.2038 20.0001 20.7724 33.4316 20.7725 50.0001C 20.7707 52.7049 20.6365 56.2382 20.4816 60.2621C 20.4709 60.541 20.46 60.8228 20.449 61.1075C 19.5676 83.9347 17.9607 125.555 32.8986 163.077C 52.3845 212.77 97.3738 253.17 185.172 263.783C 251.241 271.769 285.591 315.879 288.357 355.941C 289.601 373.973 284.416 395.345 267.932 414.079C 251.478 432.779 224.479 448.063 183.438 455.478C 70.8779 475.815 26.1938 575.297 61.256 658.411C 96.6794 742.38 203.896 793.311 360.941 748.866C 376.884 744.355 386.15 727.773 381.638 711.831C 377.126 695.888 360.545 686.622 344.603 691.134C 204.628 730.747 135.893 680.968 116.538 635.089C 106.859 612.145 106.921 585.344 119.534 562.368C 132.245 539.214 156.967 521.232 194.106 514.522C 299.644 495.454 353.377 426.591 348.214 351.809C 343.235 279.696 283.568 215.24 192.372 204.217C 158.059 200.069 134.6 190.987 118.354 179.305C 102.329 167.527 93.4242 152.98 88.7576 141.173C 79.2942 116.49 79.794 91.2176 80.4402 67.9066L 80.4431 67.8033C 80.6101 61.7777 80.7735 55.8858 80.7725 49.9999C 80.7724 33.4313 67.3409 19.9999 50.7724 20Z"/>
  </defs>
</svg>
