<svg width="664" height="555" viewBox="0 0 664 555" version="1.1" xmlns="http://www.w3.org/2000/svg" xmlns:xlink="http://www.w3.org/1999/xlink" xmlns:figma="http://www.figma.com/figma/ns">
<title>Vector 4 (Stroke)</title>
<desc>Created using Figma</desc>
<g id="Canvas" transform="translate(-32370 -10060)" figma:type="canvas">
<g id="Vector 4 (Stroke)" figma:type="vector">
<use xlink:href="#path0_fill" transform="translate(32381 10073)" fill="#003BDE"/>
<use xlink:href="#path1_stroke" transform="translate(32381 10073)" fill="#111111"/>
</g>
</g>
<defs>
<path id="path0_fill" fill-rule="evenodd" d="M 548.374 0L 610.374 222L 636.242 314.625L 552.316 267.667L 443.848 206.976L 443.848 280.759L 443.848 345.195L 386.101 316.607L 241.848 245.195L 241.848 366.759L 241.848 406.759L 201.848 406.759L 90.5006 406.759L 79.6955 530.246L 0 523.273L 14 363.273L 17.1949 326.759L 53.8477 326.759L 161.848 326.759L 161.848 180.759L 161.848 116.324L 219.594 144.912L 363.848 216.324L 363.848 138.759L 363.848 70.5428L 423.379 103.852L 507.454 150.894L 471.322 21.5189L 548.374 0Z"/>
<path id="path1_stroke" d="M 610.374 222L 600.742 224.69L 610.374 222ZM 548.374 0L 558.005 -2.68986L 555.315 -12.3213L 545.684 -9.63144L 548.374 0ZM 636.242 314.625L 631.359 323.352L 652.34 335.091L 645.873 311.935L 636.242 314.625ZM 552.316 267.667L 547.433 276.394L 552.316 267.667ZM 443.848 206.976L 448.731 198.249L 433.848 189.922L 433.848 206.976L 443.848 206.976ZM 443.848 345.195L 439.411 354.157L 453.848 361.303L 453.848 345.195L 443.848 345.195ZM 241.848 245.195L 246.284 236.233L 231.848 229.086L 231.848 245.195L 241.848 245.195ZM 241.848 406.759L 241.848 416.759L 251.848 416.759L 251.848 406.759L 241.848 406.759ZM 90.5006 406.759L 90.5006 396.759L 81.3374 396.759L 80.5386 405.888L 90.5006 406.759ZM 79.6955 530.246L 78.8238 540.208L 88.7858 541.08L 89.6574 531.118L 79.6955 530.246ZM 0 523.273L -9.96194 522.401L -10.8336 532.363L -0.871674 533.235L 0 523.273ZM 14 363.273L 23.9619 364.144L 14 363.273ZM 17.1949 326.759L 17.1949 316.759L 8.0317 316.759L 7.23298 325.888L 17.1949 326.759ZM 161.848 326.759L 161.848 336.759L 171.848 336.759L 171.848 326.759L 161.848 326.759ZM 161.848 116.324L 166.284 107.362L 151.848 100.216L 151.848 116.324L 161.848 116.324ZM 363.848 216.324L 359.411 225.286L 373.848 232.433L 373.848 216.324L 363.848 216.324ZM 363.848 70.5428L 368.731 61.816L 353.848 53.4887L 353.848 70.5428L 363.848 70.5428ZM 423.379 103.852L 428.262 95.1253L 423.379 103.852ZM 507.454 150.894L 502.571 159.621L 523.552 171.36L 517.085 148.204L 507.454 150.894ZM 471.322 21.5189L 468.632 11.8875L 459.001 14.5773L 461.691 24.2088L 471.322 21.5189ZM 620.005 219.31L 558.005 -2.68986L 538.742 2.68986L 600.742 224.69L 620.005 219.31ZM 645.873 311.935L 620.005 219.31L 600.742 224.69L 626.61 317.315L 645.873 311.935ZM 547.433 276.394L 631.359 323.352L 641.125 305.898L 557.199 258.94L 547.433 276.394ZM 438.965 215.703L 547.433 276.394L 557.199 258.94L 448.731 198.249L 438.965 215.703ZM 453.848 280.759L 453.848 206.976L 433.848 206.976L 433.848 280.759L 453.848 280.759ZM 453.848 345.195L 453.848 280.759L 433.848 280.759L 433.848 345.195L 453.848 345.195ZM 381.665 325.569L 439.411 354.157L 448.284 336.233L 390.538 307.645L 381.665 325.569ZM 237.411 254.157L 381.665 325.569L 390.538 307.645L 246.284 236.233L 237.411 254.157ZM 251.848 366.759L 251.848 245.195L 231.848 245.195L 231.848 366.759L 251.848 366.759ZM 251.848 406.759L 251.848 366.759L 231.848 366.759L 231.848 406.759L 251.848 406.759ZM 201.848 416.759L 241.848 416.759L 241.848 396.759L 201.848 396.759L 201.848 416.759ZM 90.5006 416.759L 201.848 416.759L 201.848 396.759L 90.5006 396.759L 90.5006 416.759ZM 89.6574 531.118L 100.463 407.631L 80.5386 405.888L 69.7336 529.375L 89.6574 531.118ZM -0.871674 533.235L 78.8238 540.208L 80.5672 520.284L 0.871674 513.311L -0.871674 533.235ZM 4.03806 362.401L -9.96194 522.401L 9.96194 524.144L 23.9619 364.144L 4.03806 362.401ZM 7.23298 325.888L 4.03806 362.401L 23.9619 364.144L 27.1569 327.631L 7.23298 325.888ZM 53.8477 316.759L 17.1949 316.759L 17.1949 336.759L 53.8477 336.759L 53.8477 316.759ZM 161.848 316.759L 53.8477 316.759L 53.8477 336.759L 161.848 336.759L 161.848 316.759ZM 151.848 180.759L 151.848 326.759L 171.848 326.759L 171.848 180.759L 151.848 180.759ZM 151.848 116.324L 151.848 180.759L 171.848 180.759L 171.848 116.324L 151.848 116.324ZM 224.031 135.95L 166.284 107.362L 157.411 125.286L 215.158 153.874L 224.031 135.95ZM 368.284 207.362L 224.031 135.95L 215.158 153.874L 359.411 225.286L 368.284 207.362ZM 353.848 138.759L 353.848 216.324L 373.848 216.324L 373.848 138.759L 353.848 138.759ZM 353.848 70.5428L 353.848 138.759L 373.848 138.759L 373.848 70.5428L 353.848 70.5428ZM 428.262 95.1253L 368.731 61.816L 358.965 79.2697L 418.496 112.579L 428.262 95.1253ZM 512.337 142.167L 428.262 95.1253L 418.496 112.579L 502.571 159.621L 512.337 142.167ZM 461.691 24.2088L 497.822 153.584L 517.085 148.204L 480.953 18.829L 461.691 24.2088ZM 545.684 -9.63144L 468.632 11.8875L 474.012 31.1503L 551.063 9.63144L 545.684 -9.63144Z"/>
</defs>
</svg>
