<svg width="281" height="281" viewBox="0 0 281 281" xmlns="http://www.w3.org/2000/svg" xmlns:xlink="http://www.w3.org/1999/xlink" xmlns:figma="http://www.figma.com/figma/ns"><title>Group</title><desc>Created using Figma</desc><g figma:type="canvas"><g figma:type="frame"><use xlink:href="#a" transform="translate(9 9)" fill="#80FA82" figma:type="vector"/><use xlink:href="#b" transform="translate(.7 .39)" fill="#111" figma:type="vector"/></g></g><defs><path id="a" d="M263 131.5c0 72.625-58.875 131.5-131.5 131.5S0 204.125 0 131.5 58.875 0 131.5 0 263 58.875 263 131.5z"/><path id="b" fill-rule="evenodd" d="M140 260c66.274 0 120-53.726 120-120S206.274 20 140 20 20 73.726 20 140s53.726 120 120 120zm0 20c77.32 0 140-62.68 140-140S217.32 0 140 0 0 62.68 0 140s62.68 140 140 140z"/></defs></svg>
