<svg width="598" height="703" viewBox="0 0 598 703" xmlns="http://www.w3.org/2000/svg" xmlns:xlink="http://www.w3.org/1999/xlink" xmlns:figma="http://www.figma.com/figma/ns"><title>Group</title><desc>Created using Figma</desc><g figma:type="canvas"><g figma:type="frame"><use xlink:href="#a" transform="translate(10.7 10.39)" fill="#FED93E" figma:type="vector"/><use xlink:href="#b" transform="translate(.7 .39)" fill="#111" figma:type="vector"/></g></g><defs><path id="a" fill-rule="evenodd" d="M567.6 16.189c14.523 18.428 11.357 45.14-7.07 59.662C283.825 293.444 192.049 417.6 81.033 657.477c-9.872 21.285-35.13 30.537-56.415 20.665-21.285-9.872-30.536-35.13-20.664-56.415 115.041-247.515 218.9-387.459 503.984-612.609 18.428-14.523 45.139-11.357 59.662 7.07z"/><path id="b" fill-rule="evenodd" d="M511.75 11.264c22.766-17.94 55.765-14.03 73.707 8.735 17.941 22.766 14.03 55.765-8.735 73.707l-.009.006C301.121 310.43 210.399 433.37 100.11 671.678l-.003.007c-12.196 26.295-43.399 37.725-69.694 25.529C4.118 685.018-7.31 653.815 4.884 627.52l.004-.007C120.404 379.099 225.68 237.304 511.742 11.271l.008-.007zm12.38 15.709C240.034 251.233 137.592 389.326 23.028 635.935c-7.548 16.275-.474 35.587 15.8 43.135l-4.207 9.072 4.207-9.071c16.275 7.548 35.587.474 43.135-15.801C193.705 421.826 286.535 296.457 564.347 77.994c14.086-11.105 16.505-31.526 5.401-45.615-11.104-14.09-31.528-16.51-45.618-5.406z"/></defs></svg>
